<svg class="imageRules2Svg align-baseline" xmlns="http://www.w3.org/2000/svg" width="304" height="270">
          <defs>
            <linearGradient id="a" x1="50%" x2="50%" y1="0%" y2="100%"><stop offset="0%" stop-color="#FFF" stop-opacity=".097"/><stop offset="100%" stop-color="#FFF" stop-opacity="0"/></linearGradient>
            <linearGradient id="b" x1="50%" x2="50%" y1="0%" y2="100%"><stop offset="0%" stop-color="#FFF" stop-opacity=".097"/><stop offset="100%" stop-color="#FFF" stop-opacity="0"/></linearGradient>
          </defs>
          <g fill="none" fill-rule="evenodd">
            <ellipse cx="53.189" cy="54.815" fill="hsl(349, 71%, 45%)" rx="53.189" ry="54.815"/> 
            <ellipse cx="53.189" cy="52.385" fill="hsl(349, 70%, 56%)" rx="53.189" ry="52.385"/>
            <g transform="translate(12.357 12.421)">
              <ellipse cx="40.832" cy="41.044" fill="#B1B4C5" rx="40.832" ry="41.044"/>
              <ellipse cx="40.832" cy="43.000" fill="#E1E4ED" rx="40.832" ry="39.000"/>
              <path fill="#3B4262" fill-rule="nonzero" d="M57.179 35.15c-.475-5.997-7.208-5.385-7.208-5.385-2.842-5.01-7.281-1.381-7.281-1.381-3.41-4.911-7.687-.36-7.687-.36-7.373-.796-7.087 5.234-7.087 5.234-.173 1.917 1.04 7.847 1.04 7.847-1.094-3.418-3.467-.581-3.467-.581-2.917 4.502-.721 6.967-.721 6.967 3.947 4.626 12.357 10.18 12.357 10.18 3.046 1.745 1.757 3.3 1.757 3.3l18.42-3.044.424-3.494c2.8-8.472-.547-19.284-.547-19.284z"/>
          </g>
          </g>
        </svg>